<svg width="320" height="90" viewBox="0 0 320 90" fill="none" xmlns="http://www.w3.org/2000/svg">
  <defs>
    <style>
      @import url('https://fonts.googleapis.com/css2?family=Cinzel:wght=700&amp;family=DM+Sans:wght=400');
    </style>
  </defs>

  <!-- Icon -->
  <g transform="translate(45,45)">
    <circle cx="0" cy="0" r="38" fill="#fdf6e0"/>
    <circle cx="0" cy="0" r="38" stroke="#b8902a" stroke-width="2.5" fill="none"/>
    <circle cx="0" cy="0" r="24" stroke="#b8902a" stroke-width="1" stroke-dasharray="4 3.5" fill="none" opacity="0.4" transform="rotate(22)"/>
    <path d="M 0 -20 C 0 -20 -13 -5 -13 5 C -13 12.2 -7.2 18 0 18 C 7.2 18 13 12.2 13 5 C 13 -5 0 -20 0 -20 Z"
      fill="#b8902a"/>
    <ellipse cx="-4.5" cy="2" rx="4" ry="7" fill="white" opacity="0.25" transform="rotate(-18,-4.5,2)"/>
    <circle cx="0" cy="-38" r="5" fill="#b8902a"/>
    <circle cx="0"   cy="-38" r="2" fill="#b8902a" opacity="0.35"/>
    <circle cx="0"   cy="38"  r="2" fill="#b8902a" opacity="0.35"/>
    <circle cx="-38" cy="0"   r="2" fill="#b8902a" opacity="0.35"/>
    <circle cx="38"  cy="0"   r="2" fill="#b8902a" opacity="0.35"/>
  </g>

  <!-- Wordmark -->
  <text x="102" y="42"
    font-family="Cinzel, serif"
    font-size="36"
    font-weight="700"
    fill="#1a1400"
    letter-spacing="4">NORIA</text>

  <line x1="102" y1="51" x2="308" y2="51" stroke="#b8902a" stroke-width="0.75" opacity="0.6"/>

  <text x="103" y="64"
    font-family="DM Sans, sans-serif"
    font-size="9"
    fill="#b8902a"
    letter-spacing="5.5"
    font-weight="400">IRRIGATION CONTROL</text>
</svg>
