<svg version="1.2" xmlns="http://www.w3.org/2000/svg" viewBox="0 0 45 56" width="45" height="56">
	<style>
		.s0 { fill: #ffffff } 
	</style>
	<path fill-rule="evenodd" class="s0" d="m6.5 5c5-5 12.92-5 19-5 6.5 0 10 3 13 6 3 3 6.5 15.5 6.5 20.5 0 5-0.5 15-5 19-1.76 1.56-4.03 2.32-6.01 2.99-1.4 0.47-2.66 0.89-3.49 1.51q-0.27 0.31-0.53 0.59c-3.55 4.02-4.54 5.14-11.47 4.41-9.36-0.98-12.89-9.25-14.43-12.84q-0.04-0.08-0.07-0.16c-1.76-4.11-4-10.83-4-17.5 0-5.5 2.5-15.5 6.5-19.5zm31.06 36.33c-0.13-0.29-0.26-0.59-0.05-0.88 0.08-0.29 0-0.63-0.34-0.84q-0.09-0.22-0.21-0.44-0.14-0.26-0.25-0.56-0.44-1.44-1.01-2.82c-0.03-0.19-0.15-0.37-0.27-0.55-0.22-0.34-0.43-0.67-0.02-1-0.22-0.7-0.66-1.25-1.11-1.8-0.41-0.52-0.83-1.04-1.08-1.69q-0.1-0.16-0.14-0.36c-0.07-0.24-0.14-0.48-0.44-0.56q-0.02-0.05-0.02-0.1c-0.02-0.11-0.04-0.23-0.24-0.2q-0.04-0.06-0.11-0.11c-0.08-0.08-0.17-0.15-0.14-0.26-0.12-0.07-0.18-0.2-0.23-0.33q-0.03-0.07-0.06-0.14c-0.06 0-0.08-0.07-0.1-0.15q-0.01-0.05-0.03-0.1-0.02-0.03-0.05-0.06c-0.1-0.15-0.19-0.27-0.37-0.23-0.12-0.04 0-0.17 0-0.17-0.13-0.41-0.42-0.78-0.7-1.15-0.49-0.66-0.98-1.31-0.68-2.17q0.13-0.33 0.3-0.63c0.17-0.33 0.34-0.64 0.37-1.01 0.05-0.22 0.18-0.38 0.31-0.55 0.16-0.2 0.32-0.4 0.32-0.71q0.57-1 1.01-2.14c0.58-0.59 0.92-1.34 1.24-2.08q0.07-0.16 0.14-0.31c0-0.22 0.07-0.43 0.14-0.64 0.1-0.32 0.2-0.65 0.07-1 0.42-0.63 0.72-1.3 0.97-1.97 0.14-0.31 0.11-0.62 0.08-0.93-0.03-0.24-0.05-0.47 0-0.71-0.08 0.17-0.29 0.08-0.42 0 0-0.1-0.06-0.17-0.11-0.24-0.09-0.11-0.17-0.21-0.01-0.39 0.12-0.02 0.2 0.05 0.29 0.12 0.09 0.07 0.18 0.15 0.34 0.13q0.02-0.05 0.05-0.1c0.12-0.23 0.25-0.48 0.07-0.7-0.38-0.23-0.78-0.28-1.2-0.34-0.32-0.04-0.65-0.08-0.98-0.2-0.78-0.24-1.42-0.15-2.21-0.03q-0.09 0.01-0.19 0.03-0.1-0.05-0.18-0.1c-0.12-0.07-0.23-0.14-0.4-0.11-0.62 0.25-1.29 0.26-1.95 0.26-0.41 0-0.82 0.01-1.2 0.07-0.31 0.18-0.54 0.42-0.76 0.66-0.2 0.21-0.39 0.42-0.63 0.56l-0.46 0.59q0-0.03-0.02-0.04-0.02-0.02-0.02-0.05-0.04-0.06-0.09-0.02-0.03 0.02-0.08 0.02l0.08 0.13h0.13c0.08 0.17-0.09 0.08-0.09 0.08 0.08 0.14 0.01 0.24-0.05 0.32q-0.06 0.08-0.07 0.15c-0.05 0.08-0.07 0.06-0.1 0.02-0.03-0.04-0.07-0.09-0.15-0.07-0.06 0.06-0.01 0.13 0.05 0.2 0.06 0.08 0.12 0.16 0.03 0.22l-0.21-0.12 0.13 0.25-0.13-0.08 0.04 0.12c0.02 0.17-0.05 0.16-0.14 0.15-0.1-0.01-0.21-0.02-0.28 0.15l0.09 0.04-0.09 0.08c-0.08 0.16-0.23 0.33-0.39 0.5-0.18 0.19-0.36 0.39-0.45 0.59-0.59 1.1-1.22 2.06-1.97 2.99-0.21 0-0.46 0-0.51-0.26l0.09-1.51c-0.13-0.54-0.09-1.13-0.04-1.64-0.07-0.35-0.03-0.73 0.01-1.1 0.06-0.54 0.12-1.06-0.18-1.46 0-0.12 0-0.25-0.09-0.42l-0.04 0.13 0.04 0.04c0 0-0.04 0-0.04 0.04-0.09-0.02-0.08-0.1-0.07-0.18q0.03-0.09-0.01-0.15h-0.04v-0.05q0.05-0.18 0.16-0.12v-0.3l-0.12 0.09c-0.16 0.04-0.17-0.07-0.19-0.19-0.01-0.11-0.03-0.21-0.15-0.19-0.13 0.2-0.23 0.11-0.33 0.01-0.09-0.08-0.18-0.17-0.3-0.05q-0.01-0.03-0.08-0.06-0.08-0.04-0.09-0.07c-0.14 0.03-0.23-0.02-0.33-0.07q-0.1-0.06-0.25-0.1c-0.59 0.17-1.1 0.13-1.68 0.05-0.13-0.05-0.34 0.08-0.34 0.21-0.08-0.09-0.17-0.17-0.13-0.3l-0.75 0.04q-0.08 0-0.17 0.01c-0.16 0.01-0.32 0.01-0.38-0.05-0.06 0.1-0.1 0.04-0.14-0.01q-0.01-0.02-0.03-0.03-0.32 0.01-0.6 0.07-0.31 0.08-0.61 0.06-0.29 0.07-0.54 0.06-0.26-0.02-0.51 0.06c-0.28 0.04-0.64 0.05-1 0.07-0.36 0.01-0.73 0.02-1.02 0.06q-0.02 0.02-0.02 0.08c-0.01 0.08-0.02 0.16-0.11 0.13q0.01-0.08-0.04-0.09-0.14 0-0.28 0c-0.29-0.02-0.56-0.03-0.85 0.13-0.12 0.2 0.13 0.35 0.32 0.46q0.13 0.07 0.18 0.13-0.12 0.31-0.5 0.25-0.19 0.2-0.13 0.46-0.02 0.17-0.08 0.35c-0.08 0.25-0.16 0.5-0.04 0.7-0.23 0.12-0.17 0.28-0.13 0.41 0.04 0.1 0.07 0.19 0 0.26l0.08 0.09-0.12 0.17c0.13 0.02 0.1 0.07 0.07 0.14-0.03 0.07-0.07 0.15 0.01 0.23-0.08 0.06-0.07 0.14-0.07 0.21 0.01 0.08 0.01 0.15-0.1 0.17l0.05 0.09h-0.17c0.08 0.04 0.08 0.16 0 0.25 0.08 0.14 0.01 0.18-0.06 0.23-0.07 0.05-0.15 0.1-0.07 0.27-0.08 0.04-0.04 0.08 0 0.1 0.03 0.03 0.06 0.05-0.04 0.07q0.01 0.03-0.03 0.09c-0.05 0.08-0.11 0.18 0.03 0.2-0.08 0.09-0.13 0.21-0.13 0.3 0.03 0.59-0.04 1.19-0.1 1.79q-0.09 0.77-0.11 1.53l0.09 0.16c-0.11 0.09-0.1 0.19-0.08 0.29 0.02 0.09 0.03 0.18-0.05 0.26-0.04 0.5-0.08 1.09-0.08 1.6-0.1 0.1-0.06 0.19-0.02 0.27 0.05 0.1 0.09 0.18-0.07 0.27 0.07 0.15 0.05 0.3 0.02 0.44-0.02 0.13-0.04 0.26 0.03 0.36q-0.07 0.22-0.07 0.42c-0.01 0.19-0.02 0.36-0.14 0.5q-0.03 0.27-0.06 0.54c-0.08 0.64-0.15 1.32-0.15 1.94q-0.02 0.45-0.03 0.89c-0.07 2.39-0.14 4.78-0.48 7.09-0.29 0.63-0.29 1.22-0.12 1.85q0.18 0.59 0.31 1.17c0.13 0.51 0.25 1.01 0.44 1.52-0.03 0.13 0.02 0.25 0.06 0.38q0.04 0.1 0.07 0.21c-0.15 0.16-0.05 0.28 0.05 0.39 0.1 0.12 0.2 0.23 0.03 0.4 0.1 0.13 0.25 0.06 0.37 0q0.05-0.02 0.09-0.04c0.12 0.12 0.29 0.12 0.47 0.12q0.22-0.02 0.42 0.05c0.08 0 0.29 0.04 0.42 0.08 0.15-0.09 0.31-0.04 0.48 0.03 0.2 0.07 0.41 0.15 0.65 0.02 0.34 0.11 0.7 0.14 1.08 0.17q0.47 0.02 0.98 0.12c0.59 0.46 1.38 0.76 2.06 0.63 0.58-0.07 1.16-0.05 1.73-0.02 0.84 0.03 1.67 0.06 2.47-0.19 0.72-0.26 0.69-0.84 0.65-1.43-0.02-0.26-0.03-0.52 0.02-0.75q0-0.38 0.02-0.78c0.03-0.62 0.05-1.24-0.06-1.74 0.12-0.89 0.16-1.73 0.16-2.61q0-0.16-0.02-0.35c-0.03-0.39-0.07-0.84 0.15-1.16q-0.03-0.34-0.12-0.64c-0.1-0.38-0.18-0.72 0.04-1.08 0.43-0.28 0.57 0.01 0.73 0.34 0.1 0.21 0.2 0.44 0.4 0.54-0.19 0.35 0.06 0.57 0.31 0.78 0.13 0.11 0.26 0.22 0.32 0.35 0.49 0.46 0.72 1.01 0.96 1.57q0.1 0.25 0.22 0.49 0.04 0.11 0.09 0.19c0.06 0.12 0.12 0.22 0.12 0.36 0.12 0.34 0.34 0.64 0.55 0.94 0.3 0.41 0.59 0.82 0.66 1.33-0.12 0.39 0.06 0.73 0.25 1.08 0.13 0.24 0.27 0.49 0.3 0.76-0.04 0.21 0.04 0.55 0.13 0.8q-0.02 0.04-0.04 0.08c-0.08 0.2-0.19 0.46-0.01 0.68 0.21 0.24 0.48 0.22 0.76 0.21q0.17-0.02 0.34 0 0.06 0.03 0.08 0.12c0.02 0.07 0.04 0.14 0.17 0.09l0.12 0.08c0.05-0.07 0.12-0.05 0.19-0.03q0.09 0.03 0.15-0.01v-0.04q0-0.03 0.01-0.04 0-0.01 0.03 0c0.14 0.22 0.34 0.18 0.52 0.14 0.16-0.04 0.31-0.07 0.41 0.07l0.12-0.09c0.13 0.17 0.42 0.21 0.67 0.21 0.14 0.27 0.37 0.25 0.6 0.23q0.2-0.03 0.37 0.02c0.59-0.21 1.13-0.25 1.85-0.12l0.08 0.12q0.35 0.01 0.7 0.07c0.28 0.04 0.54 0.08 0.77 0.06 0.13 0.09 0.29 0.07 0.45 0.06 0.15-0.02 0.29-0.04 0.43 0.02q0.57-0.03 1.15 0.01c0.81 0.03 1.61 0.07 2.38-0.3 0.48-0.25 0.34-0.58 0.18-0.93zm-17.57-28.26l0.05 0.13q-0.04-0.04-0.1-0.08c-0.09-0.06-0.19-0.13-0.16-0.22l-0.04 0.09c-0.06-0.07-0.08-0.04-0.1-0.02-0.01 0.02-0.03 0.03-0.07-0.03q0.03 0.03 0.07-0.02 0.04-0.05 0.1-0.06l0.04-0.21h0.09l-0.04 0.13c0.13-0.11 0.14-0.01 0.16 0.1q0.01 0.09 0.05 0.15-0.03 0-0.04 0-0.01 0.01-0.01 0.04zm-0.25-1.12q0.07-0.09 0.09-0.22c0.07-0.03 0.09 0.03 0.1 0.1q0.02 0.07 0.06 0.11v0.12c-0.07-0.1-0.1-0.02-0.12 0.03-0.02 0.04-0.03 0.07-0.04 0.01 0-0.08-0.13-0.08-0.13-0.08q0.02-0.03 0.04-0.07zm-9.03-1.15l0.09 0.04-0.26 0.17c-0.03-0.11 0.06-0.16 0.14-0.19q0.02-0.01 0.03-0.02zm9.07 2.23c0.09 0.04 0.09 0.12 0.05 0.17-0.07 0.06-0.08 0.01-0.1-0.06q-0.01-0.04-0.03-0.07h0.04zm0.34-1.39h0.12l-0.04 0.17zm0.17 0.55l-0.21-0.09h0.17zm-0.88 0.55c0 0.08-0.09 0.08-0.09 0zm1.43 7.81c0 0.04-0.17 0-0.08-0.04q0.01-0.01 0.08 0.04zm-4.03-10.16v0.04c-0.04 0-0.04 0.04-0.04 0.04l-0.05-0.08zm3.03 3.23v0.13h-0.04zm-0.3-1.51v0.12h-0.04zm-9.03 27.47v0.04l-0.08-0.04z"/>
</svg>